# xmcd CD database file
#
# Track frame offsets:
#	150
#	18950
#	35097
#	53062
#	72250
#	90152
#	107227
#	124960
#	141377
#	159652
#	174807
#	191850
#
# Disc length: 2783 seconds
#
# Revision: 2
# Processed by: cddbd v1.5.2PL0 Copyright (c) Steve Scherf et al.
# Submitted via: CDex 1.50
#
DISCID=a30add0c
DTITLE=Various Artist - 104 - Tommy Steiner - Die Fischer von San Juan
DYEAR=1995
DGENRE=Schlager
TTITLE0=Die Fischer von San Juan
TTITLE1=Bei dir hab'ich ein guters Gefühl
TTITLE2=Weg zum Paradies
TTITLE3=Tausend mal geliebt
TTITLE4=Angel Eyes
TTITLE5=Sieben Tage lang
TTITLE6=Das Lied
TTITLE7=Du tust mir gut
TTITLE8=Zum Himmel und zurück
TTITLE9=Engel und Lügen
TTITLE10=Es lebe das Leben
TTITLE11=Der Morgen danach
EXTD=YEAR: 1995
EXTT0=
EXTT1=
EXTT2=
EXTT3=
EXTT4=
EXTT5=
EXTT6=
EXTT7=
EXTT8=
EXTT9=
EXTT10=
EXTT11=
PLAYORDER=
